<svg data-v-fde0c5aa="" xmlns="http://www.w3.org/2000/svg" viewBox="0 0 300 300" class="iconLeft"><!----><defs data-v-fde0c5aa=""><!----></defs><rect data-v-fde0c5aa="" fill="transparent" x="0" y="0" width="300px" height="300px" class="logo-background-square"></rect><defs data-v-fde0c5aa=""><!----></defs><g data-v-fde0c5aa="" id="7b3a2832-c03b-42de-9daf-49c92446602e" fill="#000000" transform="matrix(2.124166118528235,0,0,2.124166118528235,89.74807457221642,127.92991329921706)"><path d="M3.40 13.64L3.40 13.64Q2.49 13.64 1.65 13.39L1.65 13.39L1.65 13.39Q0.81 13.15 0.34 12.77L0.34 12.77L0.90 11.70L0.90 11.70Q1.39 12.05 2.09 12.26L2.09 12.26L2.09 12.26Q2.79 12.47 3.50 12.47L3.50 12.47L3.50 12.47Q5.26 12.47 5.26 11.47L5.26 11.47L5.26 11.47Q5.26 11.13 5.03 10.93L5.03 10.93L5.03 10.93Q4.79 10.74 4.43 10.65L4.43 10.65L4.43 10.65Q4.07 10.56 3.42 10.44L3.42 10.44L3.42 10.44Q2.52 10.30 1.95 10.12L1.95 10.12L1.95 10.12Q1.39 9.94 0.98 9.51L0.98 9.51L0.98 9.51Q0.57 9.07 0.57 8.29L0.57 8.29L0.57 8.29Q0.57 7.28 1.41 6.67L1.41 6.67L1.41 6.67Q2.25 6.06 3.67 6.06L3.67 6.06L3.67 6.06Q4.41 6.06 5.15 6.24L5.15 6.24L5.15 6.24Q5.89 6.43 6.37 6.73L6.37 6.73L5.80 7.80L5.80 7.80Q4.89 7.21 3.65 7.21L3.65 7.21L3.65 7.21Q2.80 7.21 2.35 7.49L2.35 7.49L2.35 7.49Q1.90 7.77 1.90 8.23L1.90 8.23L1.90 8.23Q1.90 8.60 2.16 8.81L2.16 8.81L2.16 8.81Q2.41 9.02 2.78 9.11L2.78 9.11L2.78 9.11Q3.15 9.21 3.82 9.34L3.82 9.34L3.82 9.34Q4.72 9.49 5.27 9.67L5.27 9.67L5.27 9.67Q5.82 9.84 6.22 10.26L6.22 10.26L6.22 10.26Q6.61 10.68 6.61 11.44L6.61 11.44L6.61 11.44Q6.61 12.45 5.75 13.04L5.75 13.04L5.75 13.04Q4.89 13.64 3.40 13.64L3.40 13.64ZM18.31 6.13L19.52 6.13L16.74 13.55L15.46 13.55L13.31 7.92L11.14 13.55L9.86 13.55L7.10 6.13L8.37 6.13L10.53 12.04L12.77 6.13L13.90 6.13L16.10 12.07L18.31 6.13ZM23.58 6.06L23.58 6.06Q25.12 6.06 25.94 6.82L25.94 6.82L25.94 6.82Q26.75 7.57 26.75 9.07L26.75 9.07L26.75 13.55L25.48 13.55L25.48 12.57L25.48 12.57Q25.14 13.09 24.52 13.36L24.52 13.36L24.52 13.36Q23.90 13.64 23.04 13.64L23.04 13.64L23.04 13.64Q21.80 13.64 21.05 13.03L21.05 13.03L21.05 13.03Q20.30 12.43 20.30 11.45L20.30 11.45L20.30 11.45Q20.30 10.47 21.01 9.88L21.01 9.88L21.01 9.88Q21.73 9.28 23.28 9.28L23.28 9.28L25.41 9.28L25.41 9.02L25.41 9.02Q25.41 8.15 24.91 7.69L24.91 7.69L24.91 7.69Q24.40 7.22 23.42 7.22L23.42 7.22L23.42 7.22Q22.76 7.22 22.13 7.44L22.13 7.44L22.13 7.44Q21.50 7.66 21.07 8.02L21.07 8.02L20.51 7.01L20.51 7.01Q21.08 6.55 21.88 6.31L21.88 6.31L21.88 6.31Q22.68 6.06 23.58 6.06L23.58 6.06ZM23.27 12.60L23.27 12.60Q24.04 12.60 24.60 12.26L24.60 12.26L24.60 12.26Q25.16 11.91 25.41 11.28L25.41 11.28L25.41 10.25L23.34 10.25L23.34 10.25Q21.63 10.25 21.63 11.40L21.63 11.40L21.63 11.40Q21.63 11.96 22.06 12.28L22.06 12.28L22.06 12.28Q22.50 12.60 23.27 12.60L23.27 12.60ZM33.18 6.06L33.18 6.06Q34.26 6.06 35.11 6.54L35.11 6.54L35.11 6.54Q35.97 7.01 36.45 7.87L36.45 7.87L36.45 7.87Q36.93 8.72 36.93 9.84L36.93 9.84L36.93 9.84Q36.93 10.96 36.45 11.82L36.45 11.82L36.45 11.82Q35.97 12.68 35.11 13.16L35.11 13.16L35.11 13.16Q34.26 13.64 33.18 13.64L33.18 13.64L33.18 13.64Q32.38 13.64 31.72 13.33L31.72 13.33L31.72 13.33Q31.05 13.02 30.59 12.43L30.59 12.43L30.59 16.27L29.25 16.27L29.25 6.13L30.53 6.13L30.53 7.31L30.53 7.31Q30.98 6.69 31.67 6.38L31.67 6.38L31.67 6.38Q32.35 6.06 33.18 6.06L33.18 6.06ZM33.07 12.46L33.07 12.46Q33.78 12.46 34.35 12.13L34.35 12.13L34.35 12.13Q34.92 11.80 35.25 11.21L35.25 11.21L35.25 11.21Q35.57 10.61 35.57 9.84L35.57 9.84L35.57 9.84Q35.57 9.07 35.25 8.48L35.25 8.48L35.25 8.48Q34.92 7.88 34.35 7.56L34.35 7.56L34.35 7.56Q33.78 7.24 33.07 7.24L33.07 7.24L33.07 7.24Q32.37 7.24 31.80 7.57L31.80 7.57L31.80 7.57Q31.23 7.90 30.91 8.48L30.91 8.48L30.91 8.48Q30.58 9.07 30.58 9.84L30.58 9.84L30.58 9.84Q30.58 10.61 30.90 11.21L30.90 11.21L30.90 11.21Q31.22 11.80 31.79 12.13L31.79 12.13L31.79 12.13Q32.37 12.46 33.07 12.46L33.07 12.46ZM45.50 9.88L45.50 9.88Q45.50 10.04 45.47 10.29L45.47 10.29L39.45 10.29L39.45 10.29Q39.58 11.27 40.31 11.87L40.31 11.87L40.31 11.87Q41.05 12.46 42.14 12.46L42.14 12.46L42.14 12.46Q43.47 12.46 44.28 11.56L44.28 11.56L45.02 12.43L45.02 12.43Q44.52 13.02 43.77 13.33L43.77 13.33L43.77 13.33Q43.02 13.64 42.10 13.64L42.10 13.64L42.10 13.64Q40.92 13.64 40.01 13.15L40.01 13.15L40.01 13.15Q39.10 12.67 38.61 11.80L38.61 11.80L38.61 11.80Q38.11 10.93 38.11 9.84L38.11 9.84L38.11 9.84Q38.11 8.76 38.59 7.90L38.59 7.90L38.59 7.90Q39.07 7.03 39.92 6.54L39.92 6.54L39.92 6.54Q40.77 6.06 41.83 6.06L41.83 6.06L41.83 6.06Q42.90 6.06 43.73 6.54L43.73 6.54L43.73 6.54Q44.56 7.03 45.03 7.90L45.03 7.90L45.03 7.90Q45.50 8.76 45.50 9.88L45.50 9.88ZM41.83 7.20L41.83 7.20Q40.87 7.20 40.22 7.78L40.22 7.78L40.22 7.78Q39.56 8.37 39.45 9.32L39.45 9.32L44.21 9.32L44.21 9.32Q44.10 8.39 43.45 7.79L43.45 7.79L43.45 7.79Q42.80 7.20 41.83 7.20L41.83 7.20ZM48.65 7.38L48.65 7.38Q49 6.73 49.69 6.40L49.69 6.40L49.69 6.40Q50.37 6.06 51.35 6.06L51.35 6.06L51.35 7.36L51.35 7.36Q51.24 7.35 51.04 7.35L51.04 7.35L51.04 7.35Q49.95 7.35 49.33 8.00L49.33 8.00L49.33 8.00Q48.71 8.65 48.71 9.86L48.71 9.86L48.71 13.55L47.36 13.55L47.36 6.13L48.65 6.13L48.65 7.38ZM55.80 6.06L55.80 6.06Q57.34 6.06 58.16 6.82L58.16 6.82L58.16 6.82Q58.98 7.57 58.98 9.07L58.98 9.07L58.98 13.55L57.71 13.55L57.71 12.57L57.71 12.57Q57.37 13.09 56.75 13.36L56.75 13.36L56.75 13.36Q56.13 13.64 55.27 13.64L55.27 13.64L55.27 13.64Q54.03 13.64 53.28 13.03L53.28 13.03L53.28 13.03Q52.53 12.43 52.53 11.45L52.53 11.45L52.53 11.45Q52.53 10.47 53.24 9.88L53.24 9.88L53.24 9.88Q53.96 9.28 55.51 9.28L55.51 9.28L57.64 9.28L57.64 9.02L57.64 9.02Q57.64 8.15 57.13 7.69L57.13 7.69L57.13 7.69Q56.63 7.22 55.65 7.22L55.65 7.22L55.65 7.22Q54.99 7.22 54.36 7.44L54.36 7.44L54.36 7.44Q53.73 7.66 53.30 8.02L53.30 8.02L52.74 7.01L52.74 7.01Q53.31 6.55 54.11 6.31L54.11 6.31L54.11 6.31Q54.91 6.06 55.80 6.06L55.80 6.06ZM55.50 12.60L55.50 12.60Q56.27 12.60 56.83 12.26L56.83 12.26L56.83 12.26Q57.39 11.91 57.64 11.28L57.64 11.28L57.64 10.25L55.57 10.25L55.57 10.25Q53.86 10.25 53.86 11.40L53.86 11.40L53.86 11.40Q53.86 11.96 54.29 12.28L54.29 12.28L54.29 12.28Q54.73 12.60 55.50 12.60L55.50 12.60ZM65.23 12.15L65.65 13.12L65.65 13.12Q65.35 13.37 64.92 13.50L64.92 13.50L64.92 13.50Q64.48 13.64 64.02 13.64L64.02 13.64L64.02 13.64Q62.90 13.64 62.29 13.03L62.29 13.03L62.29 13.03Q61.67 12.43 61.67 11.31L61.67 11.31L61.67 7.24L60.41 7.24L60.41 6.13L61.67 6.13L61.67 4.51L63.01 4.51L63.01 6.13L65.14 6.13L65.14 7.24L63.01 7.24L63.01 11.26L63.01 11.26Q63.01 11.86 63.32 12.18L63.32 12.18L63.32 12.18Q63.62 12.50 64.18 12.50L64.18 12.50L64.18 12.50Q64.79 12.50 65.23 12.15L65.23 12.15ZM70.45 13.64L70.45 13.64Q69.34 13.64 68.46 13.15L68.46 13.15L68.46 13.15Q67.58 12.66 67.08 11.79L67.08 11.79L67.08 11.79Q66.58 10.93 66.58 9.84L66.58 9.84L66.58 9.84Q66.58 8.75 67.08 7.89L67.08 7.89L67.08 7.89Q67.58 7.03 68.46 6.54L68.46 6.54L68.46 6.54Q69.34 6.06 70.45 6.06L70.45 6.06L70.45 6.06Q71.55 6.06 72.43 6.54L72.43 6.54L72.43 6.54Q73.30 7.03 73.80 7.89L73.80 7.89L73.80 7.89Q74.30 8.75 74.30 9.84L74.30 9.84L74.30 9.84Q74.30 10.93 73.80 11.79L73.80 11.79L73.80 11.79Q73.30 12.66 72.43 13.15L72.43 13.15L72.43 13.15Q71.55 13.64 70.45 13.64L70.45 13.64ZM70.45 12.46L70.45 12.46Q71.16 12.46 71.73 12.13L71.73 12.13L71.73 12.13Q72.30 11.80 72.62 11.21L72.62 11.21L72.62 11.21Q72.94 10.61 72.94 9.84L72.94 9.84L72.94 9.84Q72.94 9.07 72.62 8.48L72.62 8.48L72.62 8.48Q72.30 7.88 71.73 7.56L71.73 7.56L71.73 7.56Q71.16 7.24 70.45 7.24L70.45 7.24L70.45 7.24Q69.73 7.24 69.17 7.56L69.17 7.56L69.17 7.56Q68.60 7.88 68.27 8.48L68.27 8.48L68.27 8.48Q67.94 9.07 67.94 9.84L67.94 9.84L67.94 9.84Q67.94 10.61 68.27 11.21L68.27 11.21L68.27 11.21Q68.60 11.80 69.17 12.13L69.17 12.13L69.17 12.13Q69.73 12.46 70.45 12.46L70.45 12.46ZM77.45 7.38L77.45 7.38Q77.80 6.73 78.48 6.40L78.48 6.40L78.48 6.40Q79.17 6.06 80.15 6.06L80.15 6.06L80.15 7.36L80.15 7.36Q80.04 7.35 79.84 7.35L79.84 7.35L79.84 7.35Q78.75 7.35 78.13 8.00L78.13 8.00L78.13 8.00Q77.50 8.65 77.50 9.86L77.50 9.86L77.50 13.55L76.16 13.55L76.16 6.13L77.45 6.13L77.45 7.38Z"></path></g><defs data-v-fde0c5aa=""><linearGradient data-v-fde0c5aa="" gradientTransform="rotate(25)" id="74b3ad92-af27-4577-9786-c906ebcf119a" x1="0%" y1="0%" x2="100%" y2="0%"><stop data-v-fde0c5aa="" offset="0%" stop-color="#41E296" stop-opacity="1"></stop><stop data-v-fde0c5aa="" offset="100%" stop-color="#00C4EE" stop-opacity="1"></stop></linearGradient></defs><g data-v-fde0c5aa="" id="c2a498af-c9c7-4a1e-9d9f-d845f63f2a4e" stroke="none" fill="url(#74b3ad92-af27-4577-9786-c906ebcf119a)" transform="matrix(1.1709465956285197,0,0,1.1709465956285197,40,131.26485446994369)"><path d="M9.382 8.675h13.943v13.943L32 31.293V0H.707zM22.618 23.325H8.675V9.382L0 .707V32h31.293z"></path></g><!----></svg>